#!OML:ASF F:\VICON\USERDATA\INSTALL\rory3\rory3.ASF
:FULLY-SPECIFIED
:DEGREES
500
root -7.73111 17.63 10.9628 357.09 1.02513 358.625
lowerback 13.2123 -0.154415 -2.37543
upperback 1.0836 -0.414228 2.11025
thorax -6.23915 -0.110939 3.65437
lowerneck -16.3596 -9.10686 -14.0443
upperneck 26.3299 -12.5335 11.6645
head 13.2614 -5.5826 4.74256
rclavicle 1.39149e-015 1.98785e-015
rhumerus -40.6673 -26.5224 -69.0584
rradius 33.5109
rwrist 6.91306
rhand -24.3574 8.96528
rfingers 7.12502
rthumb 2.13222 -21.0038
lclavicle 1.39149e-015 1.98785e-015
lhumerus -33.1995 5.81061 78.4036
lradius 31.3431
lwrist -3.8889
lhand -20.7777 24.9457
lfingers 7.12502
lthumb 5.58898 54.852
rfemur -7.03284 3.13832 -0.252604
rtibia 30.8849
rfoot 3.14336 -11.0486
rtoes 24.9894
lfemur -4.95205 -7.91905 -11.2596
ltibia 24.3213
lfoot -14.4261 -8.62796
ltoes -17.6847
501
root -7.83914 17.611 10.974 357.131 0.916801 358.621
lowerback 13.1431 -0.116393 -2.38419
upperback 1.05966 -0.364927 2.09553
thorax -6.23005 -0.0866199 3.63385
lowerneck -16.2909 -9.09591 -14.0023
upperneck 26.2197 -12.5199 11.6453
head 13.194 -5.578 4.72903
rclavicle -8.99501e-015 3.57812e-015
rhumerus -40.5067 -26.6198 -69.1081
rradius 33.3237
rwrist 7.04639
rhand -24.5897 9.09009
rfingers 7.12502
rthumb 1.90782 -20.8811
lclavicle -8.99501e-015 3.57812e-015
lhumerus -33.2785 6.00919 78.1431
lradius 31.2298
lwrist -3.90946
lhand -20.8084 24.9483
lfingers 7.12502
lthumb 5.55937 54.8554
rfemur -6.74998 3.9486 -0.640835
rtibia 30.3231
rfoot 4.20145 -10.691
rtoes 24.3271
lfemur -4.93529 -7.99935 -10.859
ltibia 24.3243
lfoot -14.5191 -8.43802
ltoes -18.3664
502
root -7.95023 17.5891 10.983 357.115 0.772185 358.69
lowerback 13.145 -0.0496204 -2.46489
upperback 1.07869 -0.290586 2.06102
thorax -6.21659 -0.0490373 3.62935
lowerneck -16.3801 -9.14578 -14.117
upperneck 26.1895 -12.5814 11.7637
head 13.2299 -5.59901 4.78
rclavicle 5.66536e-015 -5.96354e-015
rhumerus -40.2819 -26.5241 -69.2879
rradius 33.2449
rwrist 6.97214
rhand -24.7946 8.98353
rfingers 7.12502
rthumb 1.70991 -20.9894
lclavicle 5.66536e-015 -5.96354e-015
lhumerus -33.2642 6.34905 77.8449
lradius 31.0517
lwrist -4.01107
lhand -20.6287 25.4133
lfingers 7.12502
lthumb 5.73287 55.3158
rfemur -6.44831 4.6993 -1.0617
rtibia 29.8364
rfoot 5.22746 -10.1192
rtoes 23.6949
lfemur -4.89439 -8.05344 -10.532
ltibia 24.3593
lfoot -14.4911 -8.34272
ltoes -18.1648
503
root -8.06632 17.5669 10.9912 357.052 0.740488 358.632
lowerback 13.214 -0.0176269 -2.41968
upperback 1.05445 -0.243764 2.04256
thorax -6.28492 -0.0259154 3.57683
lowerneck -16.3099 -9.22395 -14.2523
upperneck 26.1589 -12.7046 11.8931
head 13.2453 -5.65436 4.83123
rclavicle 7.35503e-015 4.37326e-015
rhumerus -40.2 -26.6082 -69.3524
rradius 33.131
rwrist 7.01682
rhand -24.8326 9.03291
rfingers 7.12502
rthumb 1.67324 -20.9403
lclavicle 7.35503e-015 4.37326e-015
lhumerus -33.3408 6.62908 77.5201
lradius 30.9015
lwrist -4.11277
lhand -20.7647 25.4458
lfingers 7.12502
lthumb 5.60158 55.3517
rfemur -6.03801 5.41551 -1.25171
rtibia 29.4093
rfoot 6.0759 -9.62299
rtoes 22.6789
lfemur -4.82242 -8.08042 -10.0469
ltibia 24.3974
lfoot -14.5685 -8.2443
ltoes -19.1489
504
root -8.18661 17.5457 11.0035 356.994 0.748496 358.573
lowerback 13.2166 -0.0171002 -2.41113
upperback 1.02166 -0.241604 2.04453
thorax -6.32147 -0.0239138 3.57414
lowerneck -16.2081 -9.263 -14.368
upperneck 26.1341 -12.7681 11.9808
head 13.2414 -5.68791 4.87545
rclavicle -4.94477e-015 -2.38542e-015
rhumerus -40.1007 -26.591 -69.4429
rradius 32.9819
rwrist 7.21508
rhand -25.0825 8.85552
rfingers 7.12502
rthumb 1.43192 -21.1194
lclavicle -4.94477e-015 -2.38542e-015
lhumerus -33.4423 7.28966 77.0903
lradius 30.6483
lwrist -4.49843
lhand -20.7623 25.462
lfingers 7.12502
lthumb 5.60383 55.3679
rfemur -5.63623 6.13065 -1.37778
rtibia 29.0393
rfoot 7.0487 -8.86809
rtoes 21.5493
lfemur -4.70765 -8.03209 -9.54333
ltibia 24.3955
lfoot -14.8485 -8.0452
ltoes -21.3395
505
root -8.30852 17.5246 11.0207 356.983 0.7224 358.647
lowerback 13.0734 -0.00374688 -2.48572
upperback 1.0292 -0.236946 1.97733
thorax -6.23381 -0.0223191 3.54196
lowerneck -16.1795 -9.29126 -14.3176
upperneck 26.1127 -12.8034 11.9086
head 13.2221 -5.70815 4.83072
rclavicle 5.61567e-015 1.90833e-014
rhumerus -39.9166 -26.5081 -69.6697
rradius 32.8376
rwrist 7.31087
rhand -25.3521 8.58003
rfingers 7.12502
rthumb 1.17148 -21.3965
lclavicle 5.61567e-015 1.90833e-014
lhumerus -33.513 8.17558 76.4989
lradius 30.3196
lwrist -5.17848
lhand -20.1869 25.8896
lfingers 7.12502
lthumb 6.15939 55.78
rfemur -5.30131 6.6983 -1.64741
rtibia 28.6804
rfoot 7.89847 -7.72436
rtoes 20.4058
lfemur -4.6002 -8.09425 -9.19331
ltibia 24.3674
lfoot -15.11 -7.74209
ltoes -23.2529
506
root -8.43093 17.5053 11.0357 356.982 0.6546 358.852
lowerback 12.9881 0.0466125 -2.64432
upperback 0.992702 -0.20088 1.83663
thorax -6.22781 -0.00188339 3.47534
lowerneck -15.9886 -9.32446 -14.3033
upperneck 25.9914 -12.869 11.9089
head 13.1418 -5.74408 4.81722
rclavicle 4.44781e-015 6.95746e-015
rhumerus -39.8997 -26.6282 -69.8037
rradius 32.7867
rwrist 7.42658
rhand -25.5083 8.59771
rfingers 7.12502
rthumb 1.02069 -21.3796
lclavicle 4.44781e-015 6.95746e-015
lhumerus -33.6556 8.75567 75.9336
lradius 30.1828
lwrist -5.50134
lhand -19.7724 26.4164
lfingers 7.12502
lthumb 6.55952 56.2948
rfemur -4.9867 7.15985 -2.0442
rtibia 28.3123
rfoot 8.49128 -6.30812
rtoes 19.4869
lfemur -4.50364 -8.31973 -9.01057
ltibia 24.3302
lfoot -15.0543 -7.43332
ltoes -23.4599
507
root -8.55796 17.4843 11.0468 356.976 0.584074 358.905
lowerback 13.0006 0.101101 -2.69398
upperback 0.920357 -0.141184 1.75952
thorax -6.31651 0.0303899 3.41181
lowerneck -15.8716 -9.37876 -14.3257
upperneck 25.9574 -12.9593 11.9208
head 13.1213 -5.78972 4.81018
rclavicle 1.10325e-014 2.16675e-014
rhumerus -39.9233 -26.7054 -69.9112
rradius 32.7554
rwrist 7.56931
rhand -25.739 8.76721
rfingers 7.12502
rthumb 0.797868 -21.211
lclavicle 1.10325e-014 2.16675e-014
lhumerus -33.7679 9.01221 75.532
lradius 30.0947
lwrist -5.51638
lhand -19.6774 27.1905
lfingers 7.12502
lthumb 6.65128 57.066
rfemur -4.63769 7.67593 -2.1902
rtibia 27.9102
rfoot 8.781 -4.81249
rtoes 17.9133
lfemur -4.46518 -8.4754 -8.62013
ltibia 24.3683
lfoot -15.0358 -7.23467
ltoes -23.3863
508
root -8.69151 17.4638 11.059 356.97 0.540157 358.912
lowerback 13.0021 0.14447 -2.73284
upperback 0.872134 -0.0932587 1.70148
thorax -6.37247 0.0558764 3.36402
lowerneck -16.0108 -9.44429 -14.2944
upperneck 26.1164 -13.045 11.8541
head 13.222 -5.82554 4.76134
rclavicle 4.53478e-015 -1.39149e-015
rhumerus -39.885 -26.537 -70.1598
rradius 32.7794
rwrist 7.57157
rhand -26.0032 8.64218
rfingers 7.12502
rthumb 0.542627 -21.3369
lclavicle 4.53478e-015 -1.39149e-015
lhumerus -33.7879 9.42754 75.0712
lradius 29.8188
lwrist -5.73527
lhand -19.4493 27.5689
lfingers 7.12502
lthumb 6.87143 57.4374
rfemur -4.3411 8.25575 -2.18537
rtibia 27.5348
rfoot 8.5045 -3.5137
rtoes 14.199
lfemur -4.39138 -8.50081 -8.12804
ltibia 24.4261
lfoot -15.5268 -6.94281
ltoes -25.7386
509
root -8.82783 17.4445 11.0719 356.981 0.562983 359.02
lowerback 12.9551 0.150863 -2.87114
upperback 0.838103 -0.109773 1.61477
thorax -6.38104 0.0511247 3.35333
lowerneck -16.065 -9.47568 -14.3893
upperneck 26.1584 -13.0899 11.9415
head 13.2742 -5.84229 4.80285
rclavicle -5.15598e-015 -1.98785e-016
rhumerus -39.7839 -26.1629 -70.5503
rradius 32.851
rwrist 7.24238
rhand -26.29 8.48575
rfingers 7.12502
rthumb 0.265632 -21.4938
lclavicle -5.15598e-015 -1.98785e-016
lhumerus -33.8642 9.91167 74.5578
lradius 29.6112
lwrist -5.84783
lhand -19.3056 27.5284
lfingers 7.12502
lthumb 7.01016 57.3923
rfemur -4.0097 8.7144 -2.24463
rtibia 27.2117
rfoot 7.41915 -2.44975
rtoes 8.13021
lfemur -4.26735 -8.56212 -7.73487
ltibia 24.4123
lfoot -16.3099 -6.47415
ltoes -29.4401
